<svg width="466" height="285" viewBox="0 0 466 285" fill="none" xmlns="http://www.w3.org/2000/svg">
<path d="M389.256 14.4725C389.256 70.9963 370.312 128.138 341.895 165.173C304.007 203.915 304.007 227.596 195.287 227.596C86.5678 227.596 86.1473 209.742 44.5865 165.173C3.02568 120.605 0.897949 75.7323 0.897949 19.2085H38.7865C38.7865 99.7218 71.3593 138.4 71.3593 138.4C71.3593 138.4 100.566 189.733 195.287 189.733C290.009 189.733 313.479 138.4 313.479 138.4C313.479 138.4 345.988 80.7775 345.988 14.4725H389.256Z" fill="#2F2105"/>
<path d="M346.249 90.5083C350.094 103.102 357.898 114.12 368.503 121.926C379.107 129.732 391.947 133.911 405.114 133.841C418.281 133.77 431.075 129.456 441.597 121.538C452.118 113.62 459.805 102.52 463.518 89.8864C467.23 77.2526 466.768 63.7586 462.203 51.4077C457.637 39.0568 449.211 28.5073 438.173 21.3257C427.136 14.1441 414.078 10.7131 400.936 11.542C387.794 12.371 375.27 17.4157 365.223 25.9274L385.605 49.9858C390.477 45.8587 396.549 43.4127 402.921 43.0107C409.293 42.6088 415.624 44.2724 420.976 47.7546C426.328 51.2367 430.414 56.3518 432.628 62.3404C434.842 68.329 435.065 74.8718 433.265 80.9975C431.465 87.1233 427.737 92.5053 422.637 96.3441C417.535 100.184 411.332 102.276 404.947 102.31C398.562 102.344 392.337 100.318 387.196 96.5326C382.053 92.7475 378.269 87.4054 376.405 81.2991L346.249 90.5083Z" fill="#2F2105"/>
<path d="M322.951 15.3719C322.951 56.5842 308.98 96.1082 284.11 125.25C259.241 154.391 225.511 170.763 190.341 170.763C155.171 170.763 121.44 154.391 96.5714 125.25C71.7023 96.1082 57.7308 56.5842 57.7308 15.3719C57.7308 15.3719 133.508 49.3639 190.341 15.3719C247.174 -18.6202 322.951 15.3719 322.951 15.3719Z" fill="#FF912B"/>
<path d="M367.994 256.012H22.1599C15.6486 256.012 10.3701 262.373 10.3701 270.22C10.3701 278.067 15.6486 284.429 22.1599 284.429H367.994C374.505 284.429 379.784 278.067 379.784 270.22C379.784 262.373 374.505 256.012 367.994 256.012Z" fill="#2F2105"/>
</svg>
